<?xml version="1.0" standalone="no"?>
<!DOCTYPE svg PUBLIC "-//W3C//DTD SVG 20010904//EN"
 "http://www.w3.org/TR/2001/REC-SVG-20010904/DTD/svg10.dtd">
<svg version="1.0" xmlns="http://www.w3.org/2000/svg"
 width="512.000000pt" height="512.000000pt" viewBox="0 0 512.000000 512.000000"
 preserveAspectRatio="xMidYMid meet">
<metadata>
Created by potrace 1.11, written by Peter Selinger 2001-2013
</metadata>
<g transform="translate(0.000000,512.000000) scale(0.100000,-0.100000)"
fill="#000000" stroke="none">
<path d="M2820 3830 c-624 -48 -1150 -213 -1590 -497 -47 -31 -86 -57 -88 -58
-2 -2 24 -44 58 -95 34 -50 60 -95 58 -100 -2 -5 -58 -72 -126 -149 l-123
-139 -504 168 -505 168 0 -568 0 -568 505 168 504 168 123 -139 c68 -77 124
-144 126 -149 2 -5 -24 -50 -58 -100 -34 -51 -60 -93 -58 -95 17 -16 194 -125
275 -169 483 -267 1160 -415 1798 -392 317 11 603 72 850 181 l60 27 -30 25
c-181 150 -250 222 -338 359 -116 179 -197 434 -197 620 l0 64 139 0 138 0 7
-77 c21 -236 109 -431 271 -602 79 -83 153 -142 238 -190 l58 -32 67 52 c119
94 191 162 284 269 140 163 280 382 338 528 l20 54 -44 98 c-143 316 -412 631
-708 829 -107 71 -284 162 -403 206 -129 48 -332 99 -476 120 -134 20 -499 28
-669 15z m274 -1489 c152 -266 276 -485 276 -487 0 -2 -87 -4 -194 -4 l-194 0
-62 73 c-239 280 -301 551 -185 805 31 68 65 116 75 105 4 -4 132 -226 284
-492z m1391 479 c112 -69 70 -239 -63 -257 -105 -14 -187 109 -138 206 35 67
134 93 201 51z"/>
</g>
</svg>
